<?xml version="1.0" encoding="UTF-8"?>
<svg width="40px" height="40px" viewBox="0 0 40 40" version="1.1" xmlns="http://www.w3.org/2000/svg" xmlns:xlink="http://www.w3.org/1999/xlink">
    <title>Trimmings</title>
    <path d="M14.86,40 L14.86,16.49 L-1.77635684e-15,27.6149559 L0,22.6644834 L18.828,8.569 L18.828,40 L14.86,40 Z M25.032,40 L21.064,40 L21.064,8.569 L40,22.7458235 L40,27.6958102 L25.032,16.49 L25.032,40 Z" fill="#169578"></path>
    <path d="M8.656,40 L8.656,28.885 L1.77635684e-15,35.36504 L0,30.4148914 L12.624,20.964 L12.624,40 L8.656,40 Z M31.236,40 L27.268,40 L27.268,20.964 L40,30.4956352 L40,35.4461786 L31.236,28.885 L31.236,40 Z" fill="#0F6753"></path>
    <path d="M0,19.8831398 L0,14.9325122 L19.946,0 L40,15.0133661 L40,19.964603 L19.946,4.95 L0,19.8831398 Z" fill="#20D9AF"></path>
</svg>
