<?xml version="1.0" encoding="UTF-8"?>
<svg width="24px" height="22px" viewBox="0 0 24 22" version="1.1" xmlns="http://www.w3.org/2000/svg" xmlns:xlink="http://www.w3.org/1999/xlink">
    <!-- Generator: sketchtool 55.2 (78181) - https://sketchapp.com -->
    <title>C2297BFD-5F03-4B4E-9722-119B07FFB265</title>
    <desc>Created with sketchtool.</desc>
    <g id="Mailbin" stroke="none" stroke-width="1" fill="none" fill-rule="evenodd">
        <g id="Inbox---Reply-(Sent)" transform="translate(-40.000000, -24.000000)" fill="#080808">
            <g id="Sidebar">
                <g id="Left-Col" transform="translate(0.000000, 24.000000)">
                    <g id="icon_email" transform="translate(40.000000, 0.000000)">
                        <path d="M24,22 L0,22 L0,8.725 L2,7.27 L2,0 L22,0 L22,7.272 L24,8.725 L24,22 Z M18,11 L18,10 L6,10 L6,11 L18,11 Z M18,8 L6,8 L6,9 L18,9 L18,8 Z M12,7 L12,6 L6,6 L6,7 L12,7 Z M12,5 L12,4 L6,4 L6,5 L12,5 Z M18,7 L18,4 L13,4 L13,7 L18,7 Z M4,11.528 L4,2 L20,2 L20,11.527 L12,17 L4,11.528 Z" id="Shape"></path>
                    </g>
                </g>
            </g>
        </g>
    </g>
</svg>