<?xml version="1.0" encoding="UTF-8"?>
<svg width="16px" height="4px" viewBox="0 0 16 4" version="1.1" xmlns="http://www.w3.org/2000/svg" xmlns:xlink="http://www.w3.org/1999/xlink">
    <!-- Generator: sketchtool 55.2 (78181) - https://sketchapp.com -->
    <title>345C6BB4-576B-4C6D-B9F3-0C5F3421F151</title>
    <desc>Created with sketchtool.</desc>
    <g id="Mailbin" stroke="none" stroke-width="1" fill="none" fill-rule="evenodd">
        <g id="Mobile---Thread" transform="translate(-292.000000, -126.000000)" fill="#0080AA">
            <g id="icon_menu" transform="translate(292.000000, 126.000000)">
                <path d="M4,2 C4,3.10466667 3.10466667,4 2,4 C0.895333333,4 0,3.10466667 0,2 C0,0.895333333 0.895333333,0 2,0 C3.10466667,0 4,0.895333333 4,2 Z M10,2 C10,3.10466667 9.10466667,4 8,4 C6.89533333,4 6,3.10466667 6,2 C6,0.895333333 6.89533333,0 8,0 C9.10466667,0 10,0.895333333 10,2 Z M16,2 C16,3.10466667 15.1046667,4 14,4 C12.8953333,4 12,3.10466667 12,2 C12,0.895333333 12.8953333,0 14,0 C15.1046667,0 16,0.895333333 16,2 Z" id="Shape"></path>
            </g>
        </g>
    </g>
</svg>