<?xml version="1.0" encoding="UTF-8"?>
<svg width="12px" height="12px" viewBox="0 0 12 12" version="1.1" xmlns="http://www.w3.org/2000/svg" xmlns:xlink="http://www.w3.org/1999/xlink">
    <!-- Generator: sketchtool 55.2 (78181) - https://sketchapp.com -->
    <title>F28CE2EE-CFD1-49CF-9F43-71F4DC80F5DC</title>
    <desc>Created with sketchtool.</desc>
    <g id="Mailbin" stroke="none" stroke-width="1" fill="none" fill-rule="evenodd">
        <g id="Inbox---Reply-(Sent)" transform="translate(-226.000000, -38.000000)" fill="#AAAAAA" fill-rule="nonzero">
            <g id="Sidebar">
                <g id="Search" transform="translate(212.000000, 24.000000)">
                    <g id="icon_search" transform="translate(14.000000, 14.000000)">
                        <path d="M12,10.44 L8.79976492,7.263 C9.26823944,6.5305 9.5387457,5.663 9.5387457,4.7335 C9.53924943,2.124 7.39937873,0 4.76937285,0 C2.13936697,0 0,2.124 0,4.734 C0,7.3445 2.13936697,9.4685 4.76937285,9.4685 C5.65997817,9.4685 6.49265385,9.225 7.20695156,8.802 L10.4288473,12 L12,10.44 Z M1.77718076,4.734 C1.77718076,3.0975 3.11963731,1.765 4.76886911,1.765 C6.41860465,1.765 7.7610612,3.097 7.7610612,4.734 C7.7610612,6.3715 6.41860465,7.7035 4.76886911,7.7035 C3.11963731,7.7035 1.77718076,6.3715 1.77718076,4.734 Z" id="Shape"></path>
                    </g>
                </g>
            </g>
        </g>
    </g>
</svg>