<?xml version="1.0" encoding="UTF-8"?>
<svg width="24px" height="24px" viewBox="0 0 24 24" version="1.1" xmlns="http://www.w3.org/2000/svg" xmlns:xlink="http://www.w3.org/1999/xlink">
    <!-- Generator: sketchtool 55.2 (78181) - https://sketchapp.com -->
    <title>433108F1-D333-4844-A920-6D544E8732C3</title>
    <desc>Created with sketchtool.</desc>
    <g id="Social-Photos" stroke="none" stroke-width="1" fill="none" fill-rule="evenodd">
        <g id="Latest-Photos" transform="translate(-50.000000, -22.000000)" fill="#000000">
            <g id="Header">
                <g id="icon_camera" transform="translate(50.000000, 22.000000)">
                    <path d="M12,0 C18.623,0 24,5.377 24,12 C24,18.623 18.623,24 12,24 C5.377,24 0,18.623 0,12 C0,5.377 5.377,0 12,0 Z M4.637,18.764 C6.465,20.753 9.088,22 12,22 L12.004,22 L7.386,14.002 L4.637,18.764 Z M20.66,17 L11.427,17 L14.176,21.762 C16.943,21.147 19.28,19.384 20.66,17 Z M2.459,9 C2.161,9.947 2,10.955 2,12 C2,13.823 2.489,15.533 3.343,17.005 L6.232,12.002 L6.231,12 L6.234,11.998 L7.965,9 L2.459,9 L2.459,9 Z M20.662,7.003 L16.045,15 L21.541,15 C21.839,14.053 22,13.045 22,12 C22,10.18 21.513,8.474 20.662,7.003 L20.662,7.003 Z M13.735,9 L10.274,9 L8.541,12.002 L10.272,15 L13.736,15 L15.467,12.001 L13.735,9 Z M16.622,10.001 L19.369,5.243 C17.541,3.251 14.917,2.001 12.003,2 L16.622,10.001 Z M9.83,2.237 C7.061,2.85 4.721,4.614 3.34,7 L12.58,7 L9.83,2.237 Z" id="Shape"></path>
                </g>
            </g>
        </g>
    </g>
</svg>