<svg id="Layer_1" xmlns="http://www.w3.org/2000/svg" data-name="Layer 1" height="20" width="100" viewBox="0 0 73 13" >
  <defs>
    <style>
    </style>
    <clipPath id="clip-path" transform="translate(0 -0.66)">
      <rect fill="none" y="0.66" width="72.75" height="12.65"/>
    </clipPath>
  </defs>
  <title>postlight-logo-labs-13-2</title>
  <g clipPath="url(#clip-path)">
    <polygon fill="#292931" points="43.98 0 42.23 1.69 42.23 9.51 44.05 9.51 44.05 0 43.98 0"/>
    <g clipPath="url(#clip-path)">
      <path fill="#292931" d="M46.59,3a1.1,1.1,0,0,1-.79-.32,1.12,1.12,0,0,1-.32-.79,1.15,1.15,0,0,1,.32-.79,1.11,1.11,0,0,1,.79-.33,1.13,1.13,0,0,1,1.13,1.12A1.13,1.13,0,0,1,46.59,3" transform="translate(0 -0.66)"/>
      <path fill="#292931" d="M39.35,5.06h-3.1V3.29h1.2V1.39h1.9v1.9h1.58V5.06H39.35V7.84a.84.84,0,0,0,.17.59.94.94,0,0,0,.54.2h.87V10.3a4,4,0,0,1-2.68-.39,2.32,2.32,0,0,1-.79-2v-1Z" transform="translate(0 -0.66)"/>
      <path fill="#292931" fillRule="evenodd" d="M28.16,9.28a3.8,3.8,0,0,1-5.29,0A3.63,3.63,0,0,1,21.8,6.64a3.73,3.73,0,0,1,3.74-3.72A3.77,3.77,0,0,1,28.16,4a3.56,3.56,0,0,1,1.09,2.63,3.6,3.6,0,0,1-1.08,2.64M24.17,8a1.92,1.92,0,0,0,3.28-1.39,1.88,1.88,0,0,0-.55-1.4,2,2,0,0,0-2.73,0,1.91,1.91,0,0,0-.53,1.4A1.9,1.9,0,0,0,24.17,8" transform="translate(0 -0.66)"/>
      <path fill="#292931" d="M32,5.18c0,.19.12.34.37.47a6.92,6.92,0,0,0,.91.3,8.3,8.3,0,0,1,1.07.34,2,2,0,0,1,.9.68,1.82,1.82,0,0,1,.38,1.19,2,2,0,0,1-.81,1.68,3.37,3.37,0,0,1-2,.51,2.93,2.93,0,0,1-3-1.61l1.57-.89a1.32,1.32,0,0,0,1.38.92c.65,0,1-.2,1-.61,0-.18-.12-.33-.38-.45a4.2,4.2,0,0,0-.9-.32A10.28,10.28,0,0,1,31.45,7a2.3,2.3,0,0,1-.91-.66,1.87,1.87,0,0,1-.37-1.16,2,2,0,0,1,.76-1.63A3.07,3.07,0,0,1,32.85,3a3.17,3.17,0,0,1,1.56.39,2.7,2.7,0,0,1,1.11,1.11L34,5.33a1.14,1.14,0,0,0-1.12-.72,1,1,0,0,0-.59.16.48.48,0,0,0-.23.42" transform="translate(0 -0.66)"/>
      <path fill="#292931" fillRule="evenodd" d="M56.35,3.2H54.58V4a2.62,2.62,0,0,0-2.25-1,3.29,3.29,0,0,0-2.49,1,3.56,3.56,0,0,0-1,2.55,3.6,3.6,0,0,0,1,2.56,3.41,3.41,0,0,0,2.53,1,2.64,2.64,0,0,0,2.23-1v.76a1.67,1.67,0,0,1-.49,1.28,2.39,2.39,0,0,1-3.22-.53l-1.49.93a3,3,0,0,0,1.29,1.23,4.46,4.46,0,0,0,2,.44,4,4,0,0,0,2.56-.89,3,3,0,0,0,1.1-2.48ZM52.61,8.49A2,2,0,0,1,51.19,8a1.86,1.86,0,0,1-.55-1.39,1.8,1.8,0,0,1,.55-1.37,2,2,0,0,1,1.42-.55A2,2,0,0,1,54,5.19a1.8,1.8,0,0,1,.56,1.37A1.87,1.87,0,0,1,54,8a2,2,0,0,1-1.41.54" transform="translate(0 -0.66)"/>
      <path fill="#292931" d="M61.91,3a2.48,2.48,0,0,1,1.9.77,2.9,2.9,0,0,1,.76,2.14v4.32H62.75V6.12a1.39,1.39,0,0,0-.38-1.07,1.34,1.34,0,0,0-1-.38,1.46,1.46,0,0,0-1.12.44,1.61,1.61,0,0,0-.37,1.25v3.81H58V1.39h1.85V3.94a2.22,2.22,0,0,1,2-1" transform="translate(0 -0.66)"/>
      <polygon fill="#292931" points="71.53 0.62 71.53 0.83 71.23 0.83 71.23 1.7 71.02 1.7 71.02 0.83 70.72 0.83 70.72 0.62 71.53 0.62"/>
      <polygon fill="#292931" points="72.75 1.7 72.75 0.62 72.52 0.62 72.21 1.13 71.89 0.62 71.67 0.62 71.67 1.7 71.89 1.7 71.89 1 72.19 1.5 72.22 1.5 72.53 1 72.53 1.7 72.75 1.7"/>
      <rect fill="#292931" x="45.67" y="3.01" width="1.86" height="6.5"/>
      <path fill="#292931" fillRule="evenodd" d="M20.47,1.88a3.27,3.27,0,0,0-2.39-1H14v9.29H16V7.57h2.14a3.31,3.31,0,0,0,2.38-1,3.19,3.19,0,0,0,1-2.36,3.13,3.13,0,0,0-1-2.34M19.1,5.3a1.34,1.34,0,0,1-1,.41H16v-3h2.13a1.34,1.34,0,0,1,1,.42,1.42,1.42,0,0,1,.38,1.06,1.54,1.54,0,0,1-.38,1.08" transform="translate(0 -0.66)"/>
      <path fill="#292931" d="M68.6,5.06h1.58V3.29H68.6V1.39H66.75v1.9H65.54V5.06h1.21V7.94a2.28,2.28,0,0,0,.79,2,4,4,0,0,0,2.64.35V8.59h-.87a.94.94,0,0,1-.54-.2.84.84,0,0,1-.17-.59Z" transform="translate(0 -0.66)"/>
      <polygon fill="#ff002e" points="0 0 9.69 0 0 9.49 0 0"/>
    </g>
  </g>
</svg>